<svg xmlns="http://www.w3.org/2000/svg" style="background: transparent; background-color: transparent;" xmlns:xlink="http://www.w3.org/1999/xlink" version="1.1" width="1571px" height="999px" viewBox="0 0 1571 999"><defs/><g><g data-cell-id="0"><g data-cell-id="1"><g data-cell-id="INeM3081l6CvDgDJBdE7-1"><g transform="translate(0.5,0.5)"><rect x="289.64" y="97.56" width="1280.5" height="701.22" fill="#66b2ff" stroke="none" pointer-events="all" style="fill: rgb(102, 178, 255);"/></g></g><g data-cell-id="INeM3081l6CvDgDJBdE7-2"><g transform="translate(0.5,0.5)"><rect x="945.13" y="158.54" width="335.37" height="121.95" fill="#000000" stroke="none" pointer-events="all" style="fill: rgb(0, 0, 0);"/></g></g><g data-cell-id="INeM3081l6CvDgDJBdE7-3"><g transform="translate(0.5,0.5)"><rect x="1250.01" y="371.95" width="243.9" height="91.46" fill="#000000" stroke="none" pointer-events="all" style="fill: rgb(0, 0, 0);"/></g></g><g data-cell-id="INeM3081l6CvDgDJBdE7-4"><g transform="translate(0.5,0.5)"><rect x="1097.57" y="554.88" width="304.88" height="91.46" fill="#000000" stroke="none" pointer-events="all" style="fill: rgb(0, 0, 0);"/></g></g><g data-cell-id="INeM3081l6CvDgDJBdE7-5"><g><path d="M 290.92 224.48 L 640.25 219.51 L 945.13 219.51" fill="none" stroke="#000000" stroke-width="18.29" stroke-miterlimit="10" pointer-events="stroke" style="stroke: rgb(0, 0, 0);"/></g></g><g data-cell-id="INeM3081l6CvDgDJBdE7-6"><g><path d="M 1097.57 600.61 L 975.62 600.61 L 975.62 417.69 L 1250.01 417.69" fill="none" stroke="#000000" stroke-width="18.29" stroke-miterlimit="10" pointer-events="stroke" style="stroke: rgb(0, 0, 0);"/></g></g><g data-cell-id="INeM3081l6CvDgDJBdE7-7"><g><path d="M 283.54 493.91 L 975.62 493.91" fill="none" stroke="#000000" stroke-width="18.29" stroke-miterlimit="10" pointer-events="stroke" style="stroke: rgb(0, 0, 0);"/></g></g><g data-cell-id="INeM3081l6CvDgDJBdE7-8"><g transform="translate(0.5,0.5)"><rect x="365.86" y="859.76" width="198.17" height="60.98" fill="#66b2ff" stroke="none" transform="rotate(90,464.94,890.25)" pointer-events="all" style="fill: rgb(102, 178, 255);"/></g></g><g data-cell-id="INeM3081l6CvDgDJBdE7-9"><g transform="translate(0.5,0.5)"><rect x="457.32" y="859.76" width="198.17" height="60.98" fill="#66b2ff" stroke="none" transform="rotate(90,556.41,890.25)" pointer-events="all" style="fill: rgb(102, 178, 255);"/></g></g><g data-cell-id="INeM3081l6CvDgDJBdE7-10"><g transform="translate(0.5,0.5)"><rect x="548.78" y="859.76" width="198.17" height="60.98" fill="#66b2ff" stroke="none" transform="rotate(90,647.87,890.25)" pointer-events="all" style="fill: rgb(102, 178, 255);"/></g></g><g data-cell-id="INeM3081l6CvDgDJBdE7-11"><g transform="translate(0.5,0.5)"><rect x="640.25" y="859.76" width="198.17" height="60.98" fill="#66b2ff" stroke="none" transform="rotate(90,739.33,890.25)" pointer-events="all" style="fill: rgb(102, 178, 255);"/></g></g><g data-cell-id="INeM3081l6CvDgDJBdE7-12"><g transform="translate(0.5,0.5)"><rect x="731.71" y="859.76" width="198.17" height="60.98" fill="#66b2ff" stroke="none" transform="rotate(90,830.8,890.25)" pointer-events="all" style="fill: rgb(102, 178, 255);"/></g></g><g data-cell-id="INeM3081l6CvDgDJBdE7-13"><g transform="translate(0.5,0.5)"><rect x="823.18" y="859.76" width="198.17" height="60.98" fill="#66b2ff" stroke="none" transform="rotate(90,922.26,890.25)" pointer-events="all" style="fill: rgb(102, 178, 255);"/></g></g><g data-cell-id="INeM3081l6CvDgDJBdE7-14"><g transform="translate(0.5,0.5)"><rect x="914.64" y="859.76" width="198.17" height="60.98" fill="#66b2ff" stroke="none" transform="rotate(90,1013.73,890.25)" pointer-events="all" style="fill: rgb(102, 178, 255);"/></g></g><g data-cell-id="INeM3081l6CvDgDJBdE7-15"><g transform="translate(0.5,0.5)"><rect x="1006.1" y="859.76" width="198.17" height="60.98" fill="#66b2ff" stroke="none" transform="rotate(90,1105.19,890.25)" pointer-events="all" style="fill: rgb(102, 178, 255);"/></g></g><g data-cell-id="INeM3081l6CvDgDJBdE7-16"><g transform="translate(0.5,0.5)"><path d="M -377.29 375.76 L 621.19 375.76 L 621.19 436.74 L -316.31 436.74 L -316.31 619.67 L -377.29 619.67 Z" fill="#66b2ff" stroke="none" transform="rotate(90,121.95,497.72)" pointer-events="all" style="fill: rgb(102, 178, 255);"/></g></g></g></g></g></svg>