<svg xmlns="http://www.w3.org/2000/svg" style="background: transparent; background-color: transparent;" xmlns:xlink="http://www.w3.org/1999/xlink" version="1.1" width="1837px" height="996px" viewBox="0 0 1837 996"><defs><linearGradient x1="100%" y1="0%" x2="0%" y2="0%" id="drawio-svg-c_5O76gmRoQ8gPVhxQxt-gradient-light-dark_000000_ffffff_-1-_b3b3b3-1-e-0"><stop offset="0%" stop-color="#B3B3B3" stop-opacity="1" style="stop-color: rgb(179, 179, 179); stop-opacity: 1;"/><stop offset="100%" stop-color="#000000" stop-opacity="1" style="stop-color: light-dark(rgb(0, 0, 0), rgb(255, 255, 255)); stop-opacity: 1;"/></linearGradient><linearGradient x1="0%" y1="100%" x2="0%" y2="0%" id="drawio-svg-c_5O76gmRoQ8gPVhxQxt-gradient-light-dark_000000_ffffff_-1-_b3b3b3-1-s-0"><stop offset="0%" stop-color="#B3B3B3" stop-opacity="1" style="stop-color: rgb(179, 179, 179); stop-opacity: 1;"/><stop offset="100%" stop-color="#000000" stop-opacity="1" style="stop-color: light-dark(rgb(0, 0, 0), rgb(255, 255, 255)); stop-opacity: 1;"/></linearGradient></defs><g><g data-cell-id="0"><g data-cell-id="1"><g data-cell-id="mQ-7dbrWOusGJlV1Hrcb-1"><g transform="translate(0.5,0.5)"><path d="M 0 576.92 L 1634.62 576.92 L 1826.93 769.23 L 1826.93 961.54 L 192.31 961.54 L 0 769.23 L 0 576.92 Z" fill="url(#drawio-svg-c_5O76gmRoQ8gPVhxQxt-gradient-light-dark_000000_ffffff_-1-_b3b3b3-1-e-0)" stroke="#000000" stroke-width="9.62" stroke-miterlimit="10" pointer-events="all" style="fill: url(&quot;#drawio-svg-c_5O76gmRoQ8gPVhxQxt-gradient-light-dark_000000_ffffff_-1-_b3b3b3-1-e-0&quot;); stroke: rgb(0, 0, 0);"/><path d="M 0 576.92 L 1634.62 576.92 L 1826.93 769.23 L 192.31 769.23 Z" fill-opacity="0.05" fill="#000000" stroke="none" pointer-events="all" style="fill: light-dark(rgb(0, 0, 0), rgb(237, 237, 237));"/><path d="M 0 576.92 L 192.31 769.23 L 192.31 961.54 L 0 769.23 Z" fill-opacity="0.1" fill="#000000" stroke="none" pointer-events="all" style="fill: light-dark(rgb(0, 0, 0), rgb(237, 237, 237));"/><path d="M 192.31 961.54 L 192.31 769.23 L 0 576.92 M 192.31 769.23 L 1826.93 769.23" fill="none" stroke="#000000" stroke-width="9.62" stroke-miterlimit="10" pointer-events="all" style="stroke: rgb(0, 0, 0);"/></g></g><g data-cell-id="mQ-7dbrWOusGJlV1Hrcb-2"><g transform="translate(0.5,0.5)"><path d="M 0 288.46 L 1634.62 288.46 L 1826.93 480.77 L 1826.93 673.08 L 192.31 673.08 L 0 480.77 L 0 288.46 Z" fill="url(#drawio-svg-c_5O76gmRoQ8gPVhxQxt-gradient-light-dark_000000_ffffff_-1-_b3b3b3-1-e-0)" stroke="#000000" stroke-width="9.62" stroke-miterlimit="10" pointer-events="all" style="fill: url(&quot;#drawio-svg-c_5O76gmRoQ8gPVhxQxt-gradient-light-dark_000000_ffffff_-1-_b3b3b3-1-e-0&quot;); stroke: rgb(0, 0, 0);"/><path d="M 0 288.46 L 1634.62 288.46 L 1826.93 480.77 L 192.31 480.77 Z" fill-opacity="0.05" fill="#000000" stroke="none" pointer-events="all" style="fill: light-dark(rgb(0, 0, 0), rgb(237, 237, 237));"/><path d="M 0 288.46 L 192.31 480.77 L 192.31 673.08 L 0 480.77 Z" fill-opacity="0.1" fill="#000000" stroke="none" pointer-events="all" style="fill: light-dark(rgb(0, 0, 0), rgb(237, 237, 237));"/><path d="M 192.31 673.08 L 192.31 480.77 L 0 288.46 M 192.31 480.77 L 1826.93 480.77" fill="none" stroke="#000000" stroke-width="9.62" stroke-miterlimit="10" pointer-events="all" style="stroke: rgb(0, 0, 0);"/></g></g><g data-cell-id="mQ-7dbrWOusGJlV1Hrcb-3"><g transform="translate(0.5,0.5)"><rect x="1057.69" y="576.92" width="192.31" height="48.08" fill="#ffffff" stroke="#000000" stroke-width="9.62" pointer-events="all" style="fill: light-dark(#ffffff, var(--ge-dark-color, #121212)); stroke: light-dark(rgb(0, 0, 0), rgb(255, 255, 255));"/></g></g><g data-cell-id="mQ-7dbrWOusGJlV1Hrcb-4"><g transform="translate(0.5,0.5)"><rect x="745.19" y="576.92" width="192.31" height="48.08" fill="#ffffff" stroke="#000000" stroke-width="9.62" pointer-events="all" style="fill: light-dark(#ffffff, var(--ge-dark-color, #121212)); stroke: light-dark(rgb(0, 0, 0), rgb(255, 255, 255));"/></g></g><g data-cell-id="mQ-7dbrWOusGJlV1Hrcb-5"><g transform="translate(0.5,0.5)"><path d="M 0 0 L 1634.62 0 L 1826.93 192.31 L 1826.93 384.62 L 192.31 384.62 L 0 192.31 L 0 0 Z" fill="url(#drawio-svg-c_5O76gmRoQ8gPVhxQxt-gradient-light-dark_000000_ffffff_-1-_b3b3b3-1-s-0)" stroke="#000000" stroke-width="9.62" stroke-miterlimit="10" pointer-events="all" style="fill: url(&quot;#drawio-svg-c_5O76gmRoQ8gPVhxQxt-gradient-light-dark_000000_ffffff_-1-_b3b3b3-1-s-0&quot;); stroke: rgb(0, 0, 0);"/><path d="M 0 0 L 1634.62 0 L 1826.93 192.31 L 192.31 192.31 Z" fill-opacity="0.05" fill="#000000" stroke="none" pointer-events="all" style="fill: light-dark(rgb(0, 0, 0), rgb(237, 237, 237));"/><path d="M 0 0 L 192.31 192.31 L 192.31 384.62 L 0 192.31 Z" fill-opacity="0.1" fill="#000000" stroke="none" pointer-events="all" style="fill: light-dark(rgb(0, 0, 0), rgb(237, 237, 237));"/><path d="M 192.31 384.62 L 192.31 192.31 L 0 0 M 192.31 192.31 L 1826.93 192.31" fill="none" stroke="#000000" stroke-width="9.62" stroke-miterlimit="10" pointer-events="all" style="stroke: rgb(0, 0, 0);"/></g></g><g data-cell-id="mQ-7dbrWOusGJlV1Hrcb-6"><g transform="translate(0.5,0.5)"><rect x="745.19" y="288.46" width="192.31" height="48.08" fill="#ffffff" stroke="#000000" stroke-width="9.62" pointer-events="all" style="fill: light-dark(#ffffff, var(--ge-dark-color, #121212)); stroke: light-dark(rgb(0, 0, 0), rgb(255, 255, 255));"/></g></g><g data-cell-id="mQ-7dbrWOusGJlV1Hrcb-7"><g transform="translate(0.5,0.5)"><rect x="1057.69" y="288.46" width="192.31" height="48.08" fill="#ffffff" stroke="#000000" stroke-width="9.62" pointer-events="all" style="fill: light-dark(#ffffff, var(--ge-dark-color, #121212)); stroke: light-dark(rgb(0, 0, 0), rgb(255, 255, 255));"/></g></g><g data-cell-id="mQ-7dbrWOusGJlV1Hrcb-8"><g transform="translate(0.5,0.5)"><rect x="745.19" y="865.39" width="192.31" height="48.08" fill="#ffffff" stroke="#000000" stroke-width="9.62" pointer-events="all" style="fill: light-dark(#ffffff, var(--ge-dark-color, #121212)); stroke: light-dark(rgb(0, 0, 0), rgb(255, 255, 255));"/></g></g><g data-cell-id="mQ-7dbrWOusGJlV1Hrcb-9"><g transform="translate(0.5,0.5)"><rect x="1057.69" y="865.39" width="192.31" height="48.08" fill="#ffffff" stroke="#000000" stroke-width="9.62" pointer-events="all" style="fill: light-dark(#ffffff, var(--ge-dark-color, #121212)); stroke: light-dark(rgb(0, 0, 0), rgb(255, 255, 255));"/></g></g><g data-cell-id="mQ-7dbrWOusGJlV1Hrcb-10"><g transform="translate(0.5,0.5)"><ellipse cx="1730.77" cy="312.5" rx="28.846199999999996" ry="28.846199999999996" fill="#000000" stroke="none" pointer-events="all" style="fill: light-dark(rgb(0, 0, 0), rgb(255, 255, 255));"/><rect x="1634.62" y="216.35" width="192.31" height="192.31" fill="none" stroke="none" pointer-events="all"/></g></g><g data-cell-id="mQ-7dbrWOusGJlV1Hrcb-11"><g transform="translate(0.5,0.5)"><ellipse cx="1730.77" cy="600.96" rx="28.846199999999996" ry="28.846199999999996" fill="#000000" stroke="none" pointer-events="all" style="fill: light-dark(rgb(0, 0, 0), rgb(255, 255, 255));"/><rect x="1634.62" y="504.81" width="192.31" height="192.31" fill="none" stroke="none" pointer-events="all"/></g></g><g data-cell-id="mQ-7dbrWOusGJlV1Hrcb-12"><g transform="translate(0.5,0.5)"><ellipse cx="1730.77" cy="889.42" rx="28.846199999999996" ry="28.846199999999996" fill="#000000" stroke="none" pointer-events="all" style="fill: light-dark(rgb(0, 0, 0), rgb(255, 255, 255));"/><rect x="1634.62" y="793.27" width="192.31" height="192.31" fill="none" stroke="none" pointer-events="all"/></g></g></g></g></g></svg>