<svg xmlns="http://www.w3.org/2000/svg" style="background: transparent; background-color: transparent;" xmlns:xlink="http://www.w3.org/1999/xlink" version="1.1" width="609px" height="1000px" viewBox="0 0 609 1000"><defs/><g><g data-cell-id="0"><g data-cell-id="1"><g data-cell-id="l-Lak14oInBzpHW8gku8-1"><g transform="translate(0.5,0.5)"/><g data-cell-id="l-Lak14oInBzpHW8gku8-2"><g transform="translate(0.5,0.5)"><rect x="0" y="0" width="608.69" height="111.11" rx="16.67" ry="16.67" fill-opacity="0.7" fill="#9933ff" stroke="none" pointer-events="all" style="fill: rgb(153, 51, 255);"/></g></g><g data-cell-id="l-Lak14oInBzpHW8gku8-3"><g transform="translate(0.5,0.5)"><rect x="70.23" y="111.11" width="468.22" height="111.11" fill-opacity="0.7" fill="#9933ff" stroke="none" pointer-events="all" style="fill: rgb(153, 51, 255);"/></g></g><g data-cell-id="l-Lak14oInBzpHW8gku8-4"><g transform="translate(0.5,0.5)"><rect x="0" y="222.22" width="608.69" height="111.11" rx="16.67" ry="16.67" fill-opacity="0.7" fill="#9933ff" stroke="none" pointer-events="all" style="fill: rgb(153, 51, 255);"/></g></g><g data-cell-id="l-Lak14oInBzpHW8gku8-5"><g transform="translate(0.5,0.5)"><rect x="70.23" y="333.33" width="468.22" height="111.11" fill-opacity="0.7" fill="#9933ff" stroke="none" pointer-events="all" style="fill: rgb(153, 51, 255);"/></g></g><g data-cell-id="l-Lak14oInBzpHW8gku8-6"><g transform="translate(0.5,0.5)"><rect x="70.23" y="555.55" width="468.22" height="111.11" fill-opacity="0.7" fill="#9933ff" stroke="none" pointer-events="all" style="fill: rgb(153, 51, 255);"/></g></g><g data-cell-id="l-Lak14oInBzpHW8gku8-7"><g transform="translate(0.5,0.5)"><rect x="0" y="444.44" width="608.69" height="111.11" rx="16.67" ry="16.67" fill-opacity="0.7" fill="#9933ff" stroke="none" pointer-events="all" style="fill: rgb(153, 51, 255);"/></g></g><g data-cell-id="l-Lak14oInBzpHW8gku8-8"><g transform="translate(0.5,0.5)"><rect x="0" y="666.66" width="608.69" height="111.11" rx="16.67" ry="16.67" fill-opacity="0.7" fill="#9933ff" stroke="none" pointer-events="all" style="fill: rgb(153, 51, 255);"/></g></g><g data-cell-id="l-Lak14oInBzpHW8gku8-9"><g transform="translate(0.5,0.5)"><rect x="70.23" y="777.77" width="468.22" height="111.11" fill-opacity="0.7" fill="#9933ff" stroke="none" pointer-events="all" style="fill: rgb(153, 51, 255);"/></g></g><g data-cell-id="l-Lak14oInBzpHW8gku8-10"><g transform="translate(0.5,0.5)"><rect x="0" y="888.88" width="608.69" height="111.11" rx="16.67" ry="16.67" fill-opacity="0.7" fill="#9933ff" stroke="none" pointer-events="all" style="fill: rgb(153, 51, 255);"/></g></g></g></g></g></g></svg>